<svg width="18" height="18" viewBox="0 0 18 18" fill="none" xmlns="http://www.w3.org/2000/svg">
<path fill-rule="evenodd" clip-rule="evenodd" d="M17.0526 9C17.0526 13.4473 13.4473 17.0526 9 17.0526C4.55265 17.0526 0.947368 13.4473 0.947368 9C0.947368 4.55265 4.55265 0.947368 9 0.947368C13.4473 0.947368 17.0526 4.55265 17.0526 9ZM18 9C18 13.9706 13.9706 18 9 18C4.02944 18 0 13.9706 0 9C0 4.02944 4.02944 0 9 0C13.9706 0 18 4.02944 18 9ZM9.71034 8.52619V4.02619H8.28928V8.52619H3.78928V9.94724H8.28928V14.4472H9.71034V9.94724H14.2103V8.52619H9.71034Z" fill="black"/>
</svg>
