<svg width="1920" height="603" viewBox="0 0 1920 603" fill="none" xmlns="http://www.w3.org/2000/svg">
<g filter="url(#filter0_d)">
<path d="M29.7463 534.162C31.7861 530.784 36.6755 530.784 38.7152 534.162C44.8044 544.255 55.8731 551 68.5215 551C81.1699 551 92.2385 544.255 98.3178 534.162C100.357 530.784 105.247 530.784 107.287 534.162C113.376 544.255 124.444 551 137.093 551C149.741 551 160.81 544.255 166.889 534.162C168.929 530.784 173.818 530.784 175.858 534.162C181.947 544.255 193.016 551 205.664 551C218.313 551 229.381 544.255 235.461 534.162C237.5 530.784 242.39 530.784 244.429 534.162C250.519 544.255 261.587 551 274.236 551C286.884 551 297.953 544.255 304.032 534.162C306.072 530.784 310.961 530.784 313.001 534.162C319.1 544.255 330.159 551 342.807 551C355.456 551 366.524 544.255 372.604 534.162C374.643 530.784 379.533 530.784 381.572 534.162C387.672 544.255 398.74 551 411.389 551C424.037 551 435.106 544.255 441.185 534.162C443.225 530.784 448.114 530.784 450.154 534.162C456.243 544.255 467.312 551 479.96 551C492.609 551 503.677 544.255 509.756 534.162C511.796 530.784 516.685 530.784 518.725 534.162C524.814 544.255 535.883 551 548.531 551C561.18 551 572.249 544.255 578.328 534.162C580.368 530.784 585.257 530.784 587.297 534.162C593.386 544.255 604.454 551 617.103 551C629.751 551 640.82 544.255 646.899 534.162C648.939 530.784 653.828 530.784 655.868 534.162C661.967 544.255 673.026 551 685.674 551C698.323 551 709.391 544.255 715.471 534.162C717.51 530.784 722.4 530.784 724.439 534.162C730.539 544.255 741.607 551 754.256 551C766.904 551 777.973 544.255 784.052 534.162C786.092 530.784 790.981 530.784 793.021 534.162C799.11 544.255 810.179 551 822.827 551C835.476 551 846.544 544.255 852.623 534.162C854.663 530.784 859.553 530.784 861.592 534.162C867.682 544.255 878.75 551 891.399 551C904.047 551 915.116 544.255 921.195 534.162C923.235 530.784 928.124 530.784 930.164 534.162C936.253 544.255 947.322 551 959.97 551C972.618 551 983.687 544.255 989.766 534.162C991.806 530.784 996.695 530.784 998.735 534.162C1004.83 544.255 1015.89 551 1028.54 551C1041.19 551 1052.26 544.255 1058.34 534.162C1060.38 530.784 1065.27 530.784 1067.31 534.162C1073.41 544.255 1084.47 551 1097.12 551C1109.77 551 1120.84 544.255 1126.92 534.162C1128.96 530.784 1133.85 530.784 1135.89 534.162C1141.98 544.255 1153.05 551 1165.69 551C1178.34 551 1189.41 544.255 1195.49 534.162C1197.53 530.784 1202.42 530.784 1204.46 534.162C1210.55 544.255 1221.62 551 1234.27 551C1246.91 551 1257.98 544.255 1264.06 534.162C1266.1 530.784 1270.99 530.784 1273.03 534.162C1279.12 544.255 1290.19 551 1302.84 551C1315.49 551 1326.55 544.255 1332.63 534.162C1334.67 530.784 1339.56 530.784 1341.6 534.162C1347.7 544.255 1358.76 551 1371.41 551C1384.06 551 1395.13 544.255 1401.2 534.162C1403.24 530.784 1408.13 530.784 1410.17 534.162C1416.27 544.255 1427.34 551 1439.99 551C1452.64 551 1463.71 544.255 1469.79 534.162C1471.83 530.784 1476.72 530.784 1478.76 534.162C1484.84 544.255 1495.91 551 1508.56 551C1521.21 551 1532.28 544.255 1538.36 534.162C1540.4 530.784 1545.29 530.784 1547.33 534.162C1553.42 544.255 1564.48 551 1577.13 551C1589.78 551 1600.85 544.255 1606.93 534.162C1608.97 530.784 1613.86 530.784 1615.9 534.162C1621.99 544.255 1633.06 551 1645.7 551C1658.35 551 1669.42 544.255 1675.5 534.162C1677.54 530.784 1682.43 530.784 1684.47 534.162C1690.57 544.255 1701.63 551 1714.28 551C1726.92 551 1737.99 544.255 1744.07 534.162C1746.11 530.784 1751 530.784 1753.04 534.162C1759.14 544.255 1770.21 551 1782.86 551C1795.51 551 1806.57 544.255 1812.65 534.162C1814.69 530.784 1819.58 530.784 1821.62 534.162C1827.71 544.255 1838.78 551 1851.43 551C1864.08 551 1875.15 544.255 1881.22 534.162C1883.26 530.784 1888.15 530.784 1890.19 534.162C1896.28 544.255 1907.35 551 1920 551L1920 20L4.64215e-05 19.9998L0 551C12.5884 551 23.6571 544.255 29.7463 534.162Z" fill="white"/>
</g>
<defs>
<filter id="filter0_d" x="-36" y="0" width="1992" height="603" filterUnits="userSpaceOnUse" color-interpolation-filters="sRGB">
<feFlood flood-opacity="0" result="BackgroundImageFix"/>
<feColorMatrix in="SourceAlpha" type="matrix" values="0 0 0 0 0 0 0 0 0 0 0 0 0 0 0 0 0 0 127 0"/>
<feOffset dy="16"/>
<feGaussianBlur stdDeviation="18"/>
<feColorMatrix type="matrix" values="0 0 0 0 0 0 0 0 0 0 0 0 0 0 0 0 0 0 0.1 0"/>
<feBlend mode="normal" in2="BackgroundImageFix" result="effect1_dropShadow"/>
<feBlend mode="normal" in="SourceGraphic" in2="effect1_dropShadow" result="shape"/>
</filter>
</defs>
</svg>
